<svg xmlns="http://www.w3.org/2000/svg" xmlns:xlink="http://www.w3.org/1999/xlink" version="1.1" x="0px" y="0px" viewBox="0 0 100 125" enable-background="new 0 0 100 100" xml:space="preserve"><path d="M88.887,7.836c-0.696-0.463-1.578-0.547-2.348-0.229L50,22.803L13.461,7.607c-0.769-0.318-1.651-0.234-2.348,0.229  c-0.695,0.463-1.112,1.244-1.112,2.08v64.572c0,1.01,0.607,1.92,1.54,2.309L49.04,92.393c0.054,0.021,0.11,0.031,0.164,0.049  c0.053,0.018,0.104,0.033,0.157,0.049c0.21,0.055,0.424,0.094,0.639,0.094s0.429-0.039,0.639-0.094  c0.054-0.016,0.104-0.031,0.157-0.049c0.054-0.018,0.11-0.027,0.164-0.049l37.499-15.596c0.933-0.389,1.54-1.299,1.54-2.309V9.916  C89.999,9.08,89.582,8.299,88.887,7.836z M84.999,72.82L52.5,86.336V42.748c0-1.381-1.119-2.5-2.5-2.5s-2.5,1.119-2.5,2.5v43.588  L15.001,72.82V13.662L47.5,27.18v6.195c0,1.381,1.119,2.5,2.5,2.5s2.5-1.119,2.5-2.5V27.18l32.499-13.518V72.82z"/><text x="0" y="115" fill="#000000" font-size="5px" font-weight="bold" font-family="'Helvetica Neue', Helvetica, Arial-Unicode, Arial, Sans-serif">Created by myladkings</text><text x="0" y="120" fill="#000000" font-size="5px" font-weight="bold" font-family="'Helvetica Neue', Helvetica, Arial-Unicode, Arial, Sans-serif">from the Noun Project</text></svg>